<svg enable-background="new 0 0 32 32" height="32" viewBox="0 0 32 32" width="32" xmlns="http://www.w3.org/2000/svg"><g fill="#263238"><path d="m15.5 30h-11c-1.378 0-2.5-1.121-2.5-2.5v-19.5c0-.276.224-.5.5-.5s.5.224.5.5v19.5c0 .827.673 1.5 1.5 1.5h11c.276 0 .5.224.5.5s-.224.5-.5.5z"/><path d="m27.5 30h-6c-.276 0-.5-.224-.5-.5v-10c0-.276.224-.5.5-.5h3.059l.375-3h-3.434c-.276 0-.5-.224-.5-.5v-4c0-.827.673-1.5 1.5-1.5h2.5v-3h-3.5c-1.93 0-3.5 1.57-3.5 3.5v5c0 .276-.224.5-.5.5h-3.5v3h3.5c.276 0 .5.224.5.5v10c0 .276-.224.5-.5.5s-.5-.224-.5-.5v-9.5h-3.5c-.276 0-.5-.224-.5-.5v-4c0-.276.224-.5.5-.5h3.5v-4.5c0-2.481 2.019-4.5 4.5-4.5h4c.276 0 .5.224.5.5v4c0 .276-.224.5-.5.5h-3c-.276 0-.5.225-.5.5v3.5h3.5c.144 0 .28.062.375.169s.139.251.121.394l-.5 4c-.031.25-.244.437-.496.437h-3v9h5.5c.827 0 1.5-.673 1.5-1.5v-23c0-.827-.673-1.5-1.5-1.5h-23c-.827 0-1.5.673-1.5 1.5v1c0 .276-.224.5-.5.5s-.5-.224-.5-.5v-1c0-1.379 1.122-2.5 2.5-2.5h23c1.378 0 2.5 1.121 2.5 2.5v23c0 1.379-1.122 2.5-2.5 2.5z"/></g></svg>